STARTFONT 2.1
FONT --London-Regular-R-Normal--20-180-80-80-P-114-APPLE-ROMAN
SIZE 18 80 80
FONTBOUNDINGBOX 20 20 0 -3
METRICSSET 2
STARTPROPERTIES 19
FONT_ASCENT 17
FONT_DESCENT 3
PIXEL_SIZE 20
RESOLUTION_X 80
RESOLUTION_Y 80
POINT_SIZE 180
FACE_NAME "London Regular 18"
FOUNDRY ""
FAMILY_NAME "London"
WEIGHT_NAME "Regular"
RELATIVE_WEIGHT 50
SLANT "R"
SPACING "P"
SETWIDTH_NAME "Normal"
RELATIVE_SETWIDTH 50
ADD_STYLE_NAME ""
AVERAGE_WIDTH 114
CHARSET_REGISTRY "APPLE"
CHARSET_ENCODING "ROMAN"
ENDPROPERTIES
CHARS 100
STARTCHAR char09
ENCODING 9
SWIDTH 550 0
DWIDTH 11 0
BBX 0 0 11 -3
VVECTOR 11 -3
SWIDTH1 0 0
DWIDTH1 0 0
BITMAP 
ENDCHAR
STARTCHAR char0D
ENCODING 13
SWIDTH 50 0
DWIDTH 1 0
BBX 0 0 1 -3
VVECTOR 1 -3
SWIDTH1 0 0
DWIDTH1 0 0
BITMAP 
ENDCHAR
STARTCHAR space
ENCODING 32
SWIDTH 300 0
DWIDTH 6 0
BBX 0 0 6 -3
VVECTOR 6 -3
SWIDTH1 0 0
DWIDTH1 0 0
BITMAP 
ENDCHAR
STARTCHAR exclam
ENCODING 33
SWIDTH 350 0
DWIDTH 7 0
BBX 5 14 1 1
VVECTOR 4 17
SWIDTH1 0 -1000
DWIDTH1 0 -20
BITMAP 
20
70
F8
70
70
70
70
20
20
20
00
20
70
20
ENDCHAR
STARTCHAR quotedbl
ENCODING 34
SWIDTH 500 0
DWIDTH 10 0
BBX 8 5 1 10
VVECTOR 5 17
SWIDTH1 0 -1000
DWIDTH1 0 -20
BITMAP 
42
E7
E7
42
42
ENDCHAR
STARTCHAR numbersign
ENCODING 35
SWIDTH 800 0
DWIDTH 16 0
BBX 14 12 1 4
VVECTOR 8 17
SWIDTH1 0 -1000
DWIDTH1 0 -20
BITMAP 
0110
0220
0660
3FFC
7FF8
0CC0
0CC0
7FF0
FFE0
1980
1100
2200
ENDCHAR
STARTCHAR dollar
ENCODING 36
SWIDTH 550 0
DWIDTH 11 0
BBX 10 17 1 -1
VVECTOR 6 17
SWIDTH1 0 -1000
DWIDTH1 0 -20
BITMAP 
0400
0440
0F80
1780
2500
6400
6780
6D80
7580
6580
0580
2580
7580
FF00
9E00
0400
0400
ENDCHAR
STARTCHAR percent
ENCODING 37
SWIDTH 800 0
DWIDTH 16 0
BBX 14 15 1 0
VVECTOR 8 17
SWIDTH1 0 -1000
DWIDTH1 0 -20
BITMAP 
1820
3C40
4EC0
C6C0
E580
7980
3300
0330
0678
069C
0D8C
0DC8
18F0
1860
1000
ENDCHAR
STARTCHAR ampersand
ENCODING 38
SWIDTH 850 0
DWIDTH 17 0
BBX 15 16 1 0
VVECTOR 9 17
SWIDTH1 0 -1000
DWIDTH1 0 -20
BITMAP 
0300
0780
09C0
1880
1900
1E00
0C00
1E38
277E
438C
C1C0
E2E0
F474
783C
3018
2000
ENDCHAR
STARTCHAR quotesingle
ENCODING 39
SWIDTH 250 0
DWIDTH 5 0
BBX 3 5 1 10
VVECTOR 3 17
SWIDTH1 0 -1000
DWIDTH1 0 -20
BITMAP 
40
E0
E0
40
40
ENDCHAR
STARTCHAR parenleft
ENCODING 40
SWIDTH 450 0
DWIDTH 9 0
BBX 7 18 1 -3
VVECTOR 5 17
SWIDTH1 0 -1000
DWIDTH1 0 -20
BITMAP 
02
04
08
18
30
30
60
60
E0
C0
C0
C0
E0
E0
F0
78
78
30
ENDCHAR
STARTCHAR parenright
ENCODING 41
SWIDTH 450 0
DWIDTH 9 0
BBX 7 18 1 -3
VVECTOR 5 17
SWIDTH1 0 -1000
DWIDTH1 0 -20
BITMAP 
18
3C
3C
1E
0E
0E
06
06
06
0E
0C
0C
18
18
30
20
40
80
ENDCHAR
STARTCHAR asterisk
ENCODING 42
SWIDTH 450 0
DWIDTH 9 0
BBX 7 7 1 9
VVECTOR 5 17
SWIDTH1 0 -1000
DWIDTH1 0 -20
BITMAP 
10
54
38
FE
38
54
10
ENDCHAR
STARTCHAR plus
ENCODING 43
SWIDTH 700 0
DWIDTH 14 0
BBX 10 10 2 2
VVECTOR 7 17
SWIDTH1 0 -1000
DWIDTH1 0 -20
BITMAP 
0400
0C00
0C00
0C00
7FC0
FF80
0C00
0C00
0C00
0800
ENDCHAR
STARTCHAR comma
ENCODING 44
SWIDTH 300 0
DWIDTH 6 0
BBX 3 5 1 -1
VVECTOR 3 17
SWIDTH1 0 -1000
DWIDTH1 0 -20
BITMAP 
40
E0
60
40
80
ENDCHAR
STARTCHAR hyphen
ENCODING 45
SWIDTH 500 0
DWIDTH 10 0
BBX 8 2 1 6
VVECTOR 5 17
SWIDTH1 0 -1000
DWIDTH1 0 -20
BITMAP 
7F
FE
ENDCHAR
STARTCHAR period
ENCODING 46
SWIDTH 250 0
DWIDTH 5 0
BBX 3 3 1 1
VVECTOR 3 17
SWIDTH1 0 -1000
DWIDTH1 0 -20
BITMAP 
40
E0
40
ENDCHAR
STARTCHAR slash
ENCODING 47
SWIDTH 550 0
DWIDTH 11 0
BBX 9 16 1 0
VVECTOR 6 17
SWIDTH1 0 -1000
DWIDTH1 0 -20
BITMAP 
0080
0100
0300
0300
0600
0600
0C00
0C00
1800
1800
3000
3000
6000
6000
4000
8000
ENDCHAR
STARTCHAR zero
ENCODING 48
SWIDTH 600 0
DWIDTH 12 0
BBX 10 15 1 0
VVECTOR 6 17
SWIDTH1 0 -1000
DWIDTH1 0 -20
BITMAP 
0800
1E00
3F00
6780
4380
C1C0
C0C0
C0C0
C0C0
C0C0
6080
7180
3B00
1E00
0400
ENDCHAR
STARTCHAR one
ENCODING 49
SWIDTH 600 0
DWIDTH 12 0
BBX 7 15 3 0
VVECTOR 7 17
SWIDTH1 0 -1000
DWIDTH1 0 -20
BITMAP 
20
70
F0
30
30
30
30
30
30
30
30
32
7C
38
10
ENDCHAR
STARTCHAR two
ENCODING 50
SWIDTH 600 0
DWIDTH 12 0
BBX 10 15 1 0
VVECTOR 6 17
SWIDTH1 0 -1000
DWIDTH1 0 -20
BITMAP 
3E00
7300
6180
6180
8180
0380
0700
0E00
1C00
3000
6040
4180
FF80
DF00
8E00
ENDCHAR
STARTCHAR three
ENCODING 51
SWIDTH 600 0
DWIDTH 12 0
BBX 9 16 1 0
VVECTOR 6 17
SWIDTH1 0 -1000
DWIDTH1 0 -20
BITMAP 
0800
1C00
3E00
7100
2180
1380
0700
0E00
0700
0380
2180
7180
F900
3E00
1C00
0800
ENDCHAR
STARTCHAR four
ENCODING 52
SWIDTH 600 0
DWIDTH 12 0
BBX 10 16 1 0
VVECTOR 6 17
SWIDTH1 0 -1000
DWIDTH1 0 -20
BITMAP 
0200
0300
0700
0B00
1300
2300
4300
8300
FF80
7FC0
0300
0300
0300
03C0
0380
0100
ENDCHAR
STARTCHAR five
ENCODING 53
SWIDTH 600 0
DWIDTH 12 0
BBX 10 16 1 0
VVECTOR 6 17
SWIDTH1 0 -1000
DWIDTH1 0 -20
BITMAP 
0040
3F80
3F00
3E00
2000
2600
2F00
3F80
23C0
01C0
20C0
70C0
F880
3F00
1E00
0C00
ENDCHAR
STARTCHAR six
ENCODING 54
SWIDTH 600 0
DWIDTH 12 0
BBX 9 16 1 0
VVECTOR 6 17
SWIDTH1 0 -1000
DWIDTH1 0 -20
BITMAP 
0400
0E00
1F80
2700
4200
4000
C600
CF00
D780
E380
C180
E180
F100
7A00
3C00
0800
ENDCHAR
STARTCHAR seven
ENCODING 55
SWIDTH 600 0
DWIDTH 12 0
BBX 10 15 1 0
VVECTOR 6 17
SWIDTH1 0 -1000
DWIDTH1 0 -20
BITMAP 
3FC0
7F80
8100
0300
0200
0600
0600
0C00
0C00
1C00
1C00
1C00
1F00
1E00
0C00
ENDCHAR
STARTCHAR eight
ENCODING 56
SWIDTH 600 0
DWIDTH 12 0
BBX 9 15 1 0
VVECTOR 6 17
SWIDTH1 0 -1000
DWIDTH1 0 -20
BITMAP 
1E00
2700
4380
E300
F200
7C00
3E00
1F00
2780
4380
E180
F180
7900
3E00
1C00
ENDCHAR
STARTCHAR nine
ENCODING 57
SWIDTH 600 0
DWIDTH 12 0
BBX 9 16 1 0
VVECTOR 6 17
SWIDTH1 0 -1000
DWIDTH1 0 -20
BITMAP 
0800
1E00
2F00
4780
C380
C180
E380
F580
7980
3180
0100
2100
7200
FC00
3800
1000
ENDCHAR
STARTCHAR colon
ENCODING 58
SWIDTH 250 0
DWIDTH 5 0
BBX 3 10 1 1
VVECTOR 3 17
SWIDTH1 0 -1000
DWIDTH1 0 -20
BITMAP 
40
E0
40
00
00
00
00
40
E0
40
ENDCHAR
STARTCHAR semicolon
ENCODING 59
SWIDTH 250 0
DWIDTH 5 0
BBX 3 12 1 -1
VVECTOR 3 17
SWIDTH1 0 -1000
DWIDTH1 0 -20
BITMAP 
40
E0
40
00
00
00
00
40
E0
60
40
80
ENDCHAR
STARTCHAR equal
ENCODING 61
SWIDTH 650 0
DWIDTH 13 0
BBX 9 5 2 5
VVECTOR 7 17
SWIDTH1 0 -1000
DWIDTH1 0 -20
BITMAP 
7F80
FF00
0000
7F80
FF00
ENDCHAR
STARTCHAR question
ENCODING 63
SWIDTH 500 0
DWIDTH 10 0
BBX 7 15 2 0
VVECTOR 6 17
SWIDTH1 0 -1000
DWIDTH1 0 -20
BITMAP 
10
38
7C
9E
0E
06
04
08
10
20
20
00
20
70
20
ENDCHAR
STARTCHAR at
ENCODING 64
SWIDTH 1000 0
DWIDTH 20 0
BBX 17 17 1 -2
VVECTOR 10 17
SWIDTH1 0 -1000
DWIDTH1 0 -20
BITMAP 
01F800
071C00
0C0E00
184700
30E380
617180
423180
C63180
C63180
C63180
C77100
63B200
711C00
3C0000
1F8000
0F0000
020000
ENDCHAR
STARTCHAR A
ENCODING 65
SWIDTH 700 0
DWIDTH 14 0
BBX 13 16 1 0
VVECTOR 8 17
SWIDTH1 0 -1000
DWIDTH1 0 -20
BITMAP 
0F10
3FA0
61E0
CF60
9E60
9260
8470
4460
2860
1FE0
1FE0
2060
78E0
7D68
4E70
2420
ENDCHAR
STARTCHAR B
ENCODING 66
SWIDTH 800 0
DWIDTH 16 0
BBX 14 17 1 -1
VVECTOR 8 17
SWIDTH1 0 -1000
DWIDTH1 0 -20
BITMAP 
0200
7CF8
E99C
9B0C
1B0C
1B48
1B50
7B78
FB4C
9B4C
1B4C
1A4C
19EC
33F0
47E0
8800
8000
ENDCHAR
STARTCHAR C
ENCODING 67
SWIDTH 750 0
DWIDTH 15 0
BBX 13 15 1 1
VVECTOR 8 17
SWIDTH1 0 -1000
DWIDTH1 0 -20
BITMAP 
0080
09C0
13F0
2560
6D00
4D00
CD00
CD00
CD00
ED00
E900
7108
7930
3FE0
0F80
ENDCHAR
STARTCHAR D
ENCODING 68
SWIDTH 800 0
DWIDTH 16 0
BBX 14 16 1 0
VVECTOR 8 17
SWIDTH1 0 -1000
DWIDTH1 0 -20
BITMAP 
4000
3FC0
1FF0
06B8
0A98
1A8C
1ABC
1ACC
3A8C
7ABC
9ACC
1A8C
1288
27F0
4FE0
1000
ENDCHAR
STARTCHAR E
ENCODING 69
SWIDTH 750 0
DWIDTH 15 0
BBX 14 15 1 1
VVECTOR 8 17
SWIDTH1 0 -1000
DWIDTH1 0 -20
BITMAP 
0080
09C0
13FC
2578
6D10
4D20
CD78
CDF8
CD00
ED00
E900
7108
7930
3FE0
0F80
ENDCHAR
STARTCHAR F
ENCODING 70
SWIDTH 650 0
DWIDTH 13 0
BBX 13 19 0 -3
VVECTOR 7 17
SWIDTH1 0 -1000
DWIDTH1 0 -20
BITMAP 
0080
01E8
0FF8
0DF0
0D80
3DF0
7DE0
8D80
0D80
0D80
0D80
0D80
0D80
0D80
0B00
0E00
3C00
7000
8000
ENDCHAR
STARTCHAR G
ENCODING 71
SWIDTH 750 0
DWIDTH 15 0
BBX 13 15 1 1
VVECTOR 8 17
SWIDTH1 0 -1000
DWIDTH1 0 -20
BITMAP 
0040
0FE0
1D70
2D38
4D10
4D20
CD70
CDF8
CD38
CD18
E918
7110
7920
3FC0
0F80
ENDCHAR
STARTCHAR H
ENCODING 72
SWIDTH 800 0
DWIDTH 16 0
BBX 14 18 1 -2
VVECTOR 8 17
SWIDTH1 0 -1000
DWIDTH1 0 -20
BITMAP 
0160
7E80
FD00
8B10
1B38
1B5C
1B8C
1B0C
1B0C
1B0C
1B0C
1B0C
1B0C
1B18
3630
7C60
8040
0020
ENDCHAR
STARTCHAR I
ENCODING 73
SWIDTH 550 0
DWIDTH 11 0
BBX 9 16 1 0
VVECTOR 6 17
SWIDTH1 0 -1000
DWIDTH1 0 -20
BITMAP 
0480
7900
DB00
9B00
1B00
1B00
1B00
1B00
1B00
1B00
1B00
1B00
7B00
F300
9E00
0C00
ENDCHAR
STARTCHAR J
ENCODING 74
SWIDTH 650 0
DWIDTH 13 0
BBX 13 18 0 -2
VVECTOR 7 17
SWIDTH1 0 -1000
DWIDTH1 0 -20
BITMAP 
1E00
3F98
47E0
40A0
7160
3360
0360
0360
0360
0360
0360
0360
0360
0340
02C0
3D80
7F00
8C00
ENDCHAR
STARTCHAR K
ENCODING 75
SWIDTH 800 0
DWIDTH 16 0
BBX 16 16 0 0
VVECTOR 8 17
SWIDTH1 0 -1000
DWIDTH1 0 -20
BITMAP 
0140
1E80
3D00
4D30
0D78
0D98
0D10
0D20
0D40
0DE0
0D70
1A39
373E
6FDC
8388
0100
ENDCHAR
STARTCHAR L
ENCODING 76
SWIDTH 700 0
DWIDTH 14 0
BBX 14 16 0 0
VVECTOR 7 17
SWIDTH1 0 -1000
DWIDTH1 0 -20
BITMAP 
0100
3E40
7C80
8580
0D80
0D80
0D80
0D80
0D80
0D80
0DA0
0D18
0E1C
1F38
30F0
4060
ENDCHAR
STARTCHAR M
ENCODING 77
SWIDTH 1000 0
DWIDTH 20 0
BBX 19 17 1 -1
VVECTOR 11 17
SWIDTH1 0 -1000
DWIDTH1 0 -20
BITMAP 
018400
03CE40
06FF80
0A6B80
1A6980
1A6980
1A6980
3AFD80
7BF980
9A6980
1A6980
1A6980
1A6D80
1AF9A0
7471C0
F82080
800000
ENDCHAR
STARTCHAR N
ENCODING 78
SWIDTH 800 0
DWIDTH 16 0
BBX 15 17 0 -1
VVECTOR 8 17
SWIDTH1 0 -1000
DWIDTH1 0 -20
BITMAP 
00C0
31E0
7BF0
BE78
1ABC
1B1C
1A7C
1A8C
1B08
1A18
1A10
1A30
1A20
1A72
747C
F838
8000
ENDCHAR
STARTCHAR O
ENCODING 79
SWIDTH 750 0
DWIDTH 15 0
BBX 13 15 1 1
VVECTOR 8 17
SWIDTH1 0 -1000
DWIDTH1 0 -20
BITMAP 
0780
0FE0
1AF0
3A70
5A38
DA78
DA98
DB18
DA78
DA98
D310
E230
7260
7FC0
1F00
ENDCHAR
STARTCHAR P
ENCODING 80
SWIDTH 800 0
DWIDTH 16 0
BBX 14 18 1 -2
VVECTOR 8 17
SWIDTH1 0 -1000
DWIDTH1 0 -20
BITMAP 
1000
3920
7D70
9DF8
0F1C
0D0C
1D7C
2D8C
7D3C
3D4C
1D8C
0D0C
3DDC
7DF8
8DF0
0D20
0D00
0F00
ENDCHAR
STARTCHAR Q
ENCODING 81
SWIDTH 800 0
DWIDTH 16 0
BBX 14 15 1 1
VVECTOR 8 17
SWIDTH1 0 -1000
DWIDTH1 0 -20
BITMAP 
0780
0FE0
1AF0
3A70
5A38
DA78
DA98
DB18
DA78
DA98
D310
E230
7260
7FF4
1F38
ENDCHAR
STARTCHAR R
ENCODING 82
SWIDTH 800 0
DWIDTH 16 0
BBX 16 16 0 0
VVECTOR 8 17
SWIDTH1 0 -1000
DWIDTH1 0 -20
BITMAP 
0240
1CE0
3DF0
4D78
0D38
0D18
0D10
0D20
0D40
0DE0
0D70
1A39
373E
6FDC
8388
0100
ENDCHAR
STARTCHAR S
ENCODING 83
SWIDTH 800 0
DWIDTH 16 0
BBX 14 16 1 -1
VVECTOR 8 17
SWIDTH1 0 -1000
DWIDTH1 0 -20
BITMAP 
0F90
1FE0
21C0
3080
3900
5FF0
CFF8
E41C
7F8C
3FCC
10CC
7EC8
FF90
83E0
84C0
7800
ENDCHAR
STARTCHAR T
ENCODING 84
SWIDTH 800 0
DWIDTH 16 0
BBX 15 14 0 1
VVECTOR 8 17
SWIDTH1 0 -1000
DWIDTH1 0 -20
BITMAP 
0FC2
3FFC
65F8
8920
1B20
1320
3320
3320
3B20
3A20
1C22
1E2C
0FF8
03E0
ENDCHAR
STARTCHAR U
ENCODING 85
SWIDTH 850 0
DWIDTH 17 0
BBX 16 15 1 1
VVECTOR 9 17
SWIDTH1 0 -1000
DWIDTH1 0 -20
BITMAP 
0040
3F84
7F8C
8A9E
12AC
368C
668C
668C
668C
668C
748C
389C
3CAF
1FCE
0784
ENDCHAR
STARTCHAR V
ENCODING 86
SWIDTH 700 0
DWIDTH 14 0
BBX 12 16 1 0
VVECTOR 7 17
SWIDTH1 0 -1000
DWIDTH1 0 -20
BITMAP 
3020
7870
F4F0
B530
3430
34F0
3530
3630
34F0
3530
3620
3440
7C80
1F00
0E00
0400
ENDCHAR
STARTCHAR W
ENCODING 87
SWIDTH 950 0
DWIDTH 19 0
BBX 17 16 0 0
VVECTOR 9 17
SWIDTH1 0 -1000
DWIDTH1 0 -20
BITMAP 
082100
1C7380
3AEB80
7A6980
9A6980
1A6980
1A6980
1A6980
1A6980
1A6980
1A6980
1A6900
3EFA00
1F7C00
0E3800
041000
ENDCHAR
STARTCHAR X
ENCODING 88
SWIDTH 700 0
DWIDTH 14 0
BBX 14 16 0 0
VVECTOR 7 17
SWIDTH1 0 -1000
DWIDTH1 0 -20
BITMAP 
0820
1C70
3C7C
4EB8
0E90
0700
0700
1FF0
3FE0
0380
05C0
05C0
68E4
F8F8
9078
1030
ENDCHAR
STARTCHAR Y
ENCODING 89
SWIDTH 800 0
DWIDTH 16 0
BBX 14 17 1 -2
VVECTOR 8 17
SWIDTH1 0 -1000
DWIDTH1 0 -20
BITMAP 
78F0
9D38
0F1C
0D0C
0D7C
0D8C
0D3C
0D4C
0D9C
0D18
0D30
1FC0
3000
60E0
63F0
7F10
3C20
ENDCHAR
STARTCHAR Z
ENCODING 90
SWIDTH 650 0
DWIDTH 13 0
BBX 11 16 1 0
VVECTOR 7 17
SWIDTH1 0 -1000
DWIDTH1 0 -20
BITMAP 
1020
3FE0
7FE0
40C0
0180
0300
3FE0
0E00
7FC0
1C00
3800
3020
6FC0
7FC0
FF80
8100
ENDCHAR
STARTCHAR bracketleft
ENCODING 91
SWIDTH 450 0
DWIDTH 9 0
BBX 7 19 1 -2
VVECTOR 5 17
SWIDTH1 0 -1000
DWIDTH1 0 -20
BITMAP 
7E
FC
C0
C0
C0
C0
C0
C0
C0
C0
C0
C0
C0
C0
C0
C0
C0
F8
F0
ENDCHAR
STARTCHAR backslash
ENCODING 92
SWIDTH 550 0
DWIDTH 11 0
BBX 9 16 1 0
VVECTOR 6 17
SWIDTH1 0 -1000
DWIDTH1 0 -20
BITMAP 
8000
4000
6000
2000
3000
1000
1800
1800
0C00
0C00
0600
0600
0200
0300
0100
0080
ENDCHAR
STARTCHAR bracketright
ENCODING 93
SWIDTH 450 0
DWIDTH 9 0
BBX 7 19 1 -2
VVECTOR 5 17
SWIDTH1 0 -1000
DWIDTH1 0 -20
BITMAP 
1E
3E
06
06
06
06
06
06
06
06
06
06
06
06
06
06
06
7E
FC
ENDCHAR
STARTCHAR underscore
ENCODING 95
SWIDTH 600 0
DWIDTH 12 0
BBX 12 1 0 0
VVECTOR 6 17
SWIDTH1 0 -1000
DWIDTH1 0 -20
BITMAP 
FFF0
ENDCHAR
STARTCHAR a
ENCODING 97
SWIDTH 450 0
DWIDTH 9 0
BBX 8 12 0 0
VVECTOR 4 17
SWIDTH1 0 -1000
DWIDTH1 0 -20
BITMAP 
19
3E
4E
86
46
3E
46
C6
E6
FE
77
22
ENDCHAR
STARTCHAR b
ENCODING 98
SWIDTH 450 0
DWIDTH 9 0
BBX 8 16 0 0
VVECTOR 4 17
SWIDTH1 0 -1000
DWIDTH1 0 -20
BITMAP 
10
E0
60
60
64
6E
77
63
63
63
63
63
73
FC
38
10
ENDCHAR
STARTCHAR c
ENCODING 99
SWIDTH 400 0
DWIDTH 8 0
BBX 7 12 0 0
VVECTOR 4 17
SWIDTH1 0 -1000
DWIDTH1 0 -20
BITMAP 
18
3C
6E
E4
60
60
60
60
72
FC
38
10
ENDCHAR
STARTCHAR d
ENCODING 100
SWIDTH 450 0
DWIDTH 9 0
BBX 8 15 0 0
VVECTOR 4 17
SWIDTH1 0 -1000
DWIDTH1 0 -20
BITMAP 
40
E0
F0
38
1D
2E
46
C6
C6
C6
E6
F6
7C
38
10
ENDCHAR
STARTCHAR e
ENCODING 101
SWIDTH 450 0
DWIDTH 9 0
BBX 8 12 0 0
VVECTOR 4 17
SWIDTH1 0 -1000
DWIDTH1 0 -20
BITMAP 
08
1C
2F
E6
64
68
70
70
F9
3E
1C
08
ENDCHAR
STARTCHAR f
ENCODING 102
SWIDTH 350 0
DWIDTH 7 0
BBX 6 16 0 0
VVECTOR 3 17
SWIDTH1 0 -1000
DWIDTH1 0 -20
BITMAP 
10
38
7C
68
60
60
F8
60
60
60
60
60
64
78
F0
20
ENDCHAR
STARTCHAR g
ENCODING 103
SWIDTH 500 0
DWIDTH 10 0
BBX 9 14 0 -2
VVECTOR 5 17
SWIDTH1 0 -1000
DWIDTH1 0 -20
BITMAP 
0480
0F00
1700
6300
6300
6300
6300
6700
7F00
3B00
1300
2700
7E00
FC00
ENDCHAR
STARTCHAR h
ENCODING 104
SWIDTH 450 0
DWIDTH 9 0
BBX 8 18 0 -2
VVECTOR 4 17
SWIDTH1 0 -1000
DWIDTH1 0 -20
BITMAP 
08
90
60
60
62
67
6F
73
63
63
63
63
63
F3
63
46
0C
10
ENDCHAR
STARTCHAR i
ENCODING 105
SWIDTH 350 0
DWIDTH 7 0
BBX 5 15 1 0
VVECTOR 4 17
SWIDTH1 0 -1000
DWIDTH1 0 -20
BITMAP 
30
20
00
20
70
E0
60
60
60
60
60
60
78
70
20
ENDCHAR
STARTCHAR j
ENCODING 106
SWIDTH 350 0
DWIDTH 7 0
BBX 5 17 0 -2
VVECTOR 3 17
SWIDTH1 0 -1000
DWIDTH1 0 -20
BITMAP 
30
20
00
20
70
38
18
18
18
18
18
18
18
18
10
20
C0
ENDCHAR
STARTCHAR k
ENCODING 107
SWIDTH 550 0
DWIDTH 11 0
BBX 10 16 0 0
VVECTOR 5 17
SWIDTH1 0 -1000
DWIDTH1 0 -20
BITMAP 
0800
9000
6000
6000
6000
6700
6F80
7300
6200
6400
6E00
7700
6300
FBC0
7180
2100
ENDCHAR
STARTCHAR l
ENCODING 108
SWIDTH 300 0
DWIDTH 6 0
BBX 5 16 0 0
VVECTOR 3 17
SWIDTH1 0 -1000
DWIDTH1 0 -20
BITMAP 
08
50
30
30
30
30
30
30
30
30
30
30
30
F0
38
10
ENDCHAR
STARTCHAR m
ENCODING 109
SWIDTH 750 0
DWIDTH 15 0
BBX 14 12 0 0
VVECTOR 7 17
SWIDTH1 0 -1000
DWIDTH1 0 -20
BITMAP 
2220
7770
FFF8
3330
3330
3330
3330
3330
3330
7334
3BB8
1110
ENDCHAR
STARTCHAR n
ENCODING 110
SWIDTH 600 0
DWIDTH 12 0
BBX 11 12 0 0
VVECTOR 6 17
SWIDTH1 0 -1000
DWIDTH1 0 -20
BITMAP 
2200
7740
FF80
3380
3180
3180
3180
3180
3180
3DE0
39C0
1080
ENDCHAR
STARTCHAR o
ENCODING 111
SWIDTH 400 0
DWIDTH 8 0
BBX 7 12 0 0
VVECTOR 4 17
SWIDTH1 0 -1000
DWIDTH1 0 -20
BITMAP 
08
1C
3E
4E
C6
C6
C6
C6
E6
74
38
10
ENDCHAR
STARTCHAR p
ENCODING 112
SWIDTH 500 0
DWIDTH 10 0
BBX 9 15 0 -3
VVECTOR 5 17
SWIDTH1 0 -1000
DWIDTH1 0 -20
BITMAP 
2200
7700
BB80
3180
3180
3180
3180
3180
7B80
3F80
3700
3200
3000
7000
0800
ENDCHAR
STARTCHAR q
ENCODING 113
SWIDTH 500 0
DWIDTH 10 0
BBX 8 15 1 -3
VVECTOR 5 17
SWIDTH1 0 -1000
DWIDTH1 0 -20
BITMAP 
10
38
7C
CE
C7
C6
C6
C6
C6
EE
76
26
06
07
08
ENDCHAR
STARTCHAR r
ENCODING 114
SWIDTH 500 0
DWIDTH 10 0
BBX 9 12 0 0
VVECTOR 5 17
SWIDTH1 0 -1000
DWIDTH1 0 -20
BITMAP 
2200
7700
FB80
3180
3100
3000
3000
3000
7800
3E00
1C00
0800
ENDCHAR
STARTCHAR s
ENCODING 115
SWIDTH 500 0
DWIDTH 10 0
BBX 10 12 0 0
VVECTOR 5 17
SWIDTH1 0 -1000
DWIDTH1 0 -20
BITMAP 
0840
1F80
2780
6100
6200
7700
3F80
1380
2180
7900
FE00
0C00
ENDCHAR
STARTCHAR t
ENCODING 116
SWIDTH 350 0
DWIDTH 7 0
BBX 6 14 1 0
VVECTOR 4 17
SWIDTH1 0 -1000
DWIDTH1 0 -20
BITMAP 
10
20
60
F8
60
60
60
60
60
60
60
E4
78
30
ENDCHAR
STARTCHAR u
ENCODING 117
SWIDTH 550 0
DWIDTH 11 0
BBX 11 12 0 0
VVECTOR 6 17
SWIDTH1 0 -1000
DWIDTH1 0 -20
BITMAP 
2080
7180
F3C0
3180
3180
3180
3180
3180
3980
3FE0
1DC0
0880
ENDCHAR
STARTCHAR v
ENCODING 118
SWIDTH 500 0
DWIDTH 10 0
BBX 9 15 0 0
VVECTOR 5 17
SWIDTH1 0 -1000
DWIDTH1 0 -20
BITMAP 
1000
2000
6000
E200
7100
3180
3180
3180
3180
3180
3180
3900
7E00
1C00
0800
ENDCHAR
STARTCHAR w
ENCODING 119
SWIDTH 600 0
DWIDTH 12 0
BBX 11 15 0 0
VVECTOR 6 17
SWIDTH1 0 -1000
DWIDTH1 0 -20
BITMAP 
2000
4000
C000
C440
EEE0
7760
6660
6660
6660
6660
6660
6660
F760
39C0
1080
ENDCHAR
STARTCHAR x
ENCODING 120
SWIDTH 550 0
DWIDTH 11 0
BBX 10 12 0 0
VVECTOR 5 17
SWIDTH1 0 -1000
DWIDTH1 0 -20
BITMAP 
1040
30C0
79C0
9940
1A00
0C00
0C00
0E00
9640
E780
C300
8200
ENDCHAR
STARTCHAR y
ENCODING 121
SWIDTH 500 0
DWIDTH 10 0
BBX 9 15 0 -3
VVECTOR 5 17
SWIDTH1 0 -1000
DWIDTH1 0 -20
BITMAP 
2080
7180
F380
3580
3180
3180
3180
3100
3200
3C00
3800
2000
4200
4600
3C00
ENDCHAR
STARTCHAR z
ENCODING 122
SWIDTH 450 0
DWIDTH 9 0
BBX 7 15 1 -3
VVECTOR 5 17
SWIDTH1 0 -1000
DWIDTH1 0 -20
BITMAP 
10
38
5C
8C
88
10
38
7C
1E
0E
1C
78
80
88
70
ENDCHAR
STARTCHAR braceleft
ENCODING 123
SWIDTH 400 0
DWIDTH 8 0
BBX 5 17 1 -1
VVECTOR 4 17
SWIDTH1 0 -1000
DWIDTH1 0 -20
BITMAP 
08
30
60
60
60
60
60
40
80
40
60
60
60
60
60
30
08
ENDCHAR
STARTCHAR bar
ENCODING 124
SWIDTH 300 0
DWIDTH 6 0
BBX 4 17 1 -1
VVECTOR 3 17
SWIDTH1 0 -1000
DWIDTH1 0 -20
BITMAP 
10
A0
60
60
60
60
60
60
60
60
60
60
60
60
60
50
80
ENDCHAR
STARTCHAR braceright
ENCODING 125
SWIDTH 400 0
DWIDTH 8 0
BBX 5 17 2 -1
VVECTOR 5 17
SWIDTH1 0 -1000
DWIDTH1 0 -20
BITMAP 
80
60
30
30
30
30
30
10
08
10
30
30
30
30
30
60
80
ENDCHAR
STARTCHAR endash
ENCODING 208
SWIDTH 500 0
DWIDTH 10 0
BBX 8 4 1 5
VVECTOR 5 17
SWIDTH1 0 -1000
DWIDTH1 0 -20
BITMAP 
01
7F
FE
80
ENDCHAR
STARTCHAR emdash
ENCODING 209
SWIDTH 650 0
DWIDTH 13 0
BBX 11 4 1 5
VVECTOR 7 17
SWIDTH1 0 -1000
DWIDTH1 0 -20
BITMAP 
0020
7FE0
FFC0
8000
ENDCHAR
STARTCHAR quotedblleft
ENCODING 210
SWIDTH 500 0
DWIDTH 10 0
BBX 7 5 1 10
VVECTOR 5 17
SWIDTH1 0 -1000
DWIDTH1 0 -20
BITMAP 
22
44
CC
EE
44
ENDCHAR
STARTCHAR quotedblright
ENCODING 211
SWIDTH 500 0
DWIDTH 10 0
BBX 7 5 2 10
VVECTOR 6 17
SWIDTH1 0 -1000
DWIDTH1 0 -20
BITMAP 
44
EE
66
44
88
ENDCHAR
STARTCHAR quoteleft
ENCODING 212
SWIDTH 300 0
DWIDTH 6 0
BBX 3 5 1 10
VVECTOR 3 17
SWIDTH1 0 -1000
DWIDTH1 0 -20
BITMAP 
20
40
C0
E0
40
ENDCHAR
STARTCHAR quoteright
ENCODING 213
SWIDTH 300 0
DWIDTH 6 0
BBX 3 5 2 10
VVECTOR 4 17
SWIDTH1 0 -1000
DWIDTH1 0 -20
BITMAP 
40
E0
60
40
80
ENDCHAR
STARTCHAR Ydieresis
ENCODING 217
SWIDTH 700 0
DWIDTH 14 0
BBX 11 12 2 0
VVECTOR 8 17
SWIDTH1 0 -1000
DWIDTH1 0 -20
BITMAP 
1B00
3B80
3F80
0A00
3F80
3B80
1B00
8020
F1E0
7BC0
0400
0400
ENDCHAR
STARTCHAR missing
ENCODING -1
SWIDTH 800 0
DWIDTH 16 0
BBX 14 15 1 0
VVECTOR 8 17
SWIDTH1 0 -1000
DWIDTH1 0 -20
BITMAP 
FFFC
8004
8004
8004
8004
8004
8004
8004
8004
8004
8004
8004
8004
8004
FFFC
ENDCHAR
ENDFONT
